<svg width="16" height="16" viewBox="0 0 16 16" fill="none" xmlns="http://www.w3.org/2000/svg">
<path d="M2.53594 4.40597C2.6084 4.10635 2.78653 3.83884 3.04116 3.64724C3.29579 3.45563 3.61182 3.3513 3.9375 3.35132H12.5625C12.8882 3.3513 13.2042 3.45563 13.4588 3.64724C13.7135 3.83884 13.8916 4.10635 13.9641 4.40597L8.25 7.70149L2.53594 4.40597ZM2.5 5.18051V9.99866L6.67091 7.58552L2.5 5.18051ZM7.35947 7.98364L2.63728 10.7149C2.75395 10.947 2.9381 11.1431 3.16828 11.2804C3.39846 11.4176 3.66522 11.4903 3.9375 11.4901H12.5625C12.8347 11.4902 13.1014 11.4173 13.3314 11.2799C13.5615 11.1425 13.7455 10.9464 13.862 10.7142L9.13981 7.98296L8.25 8.49638L7.35947 7.98296V7.98364ZM9.82909 7.5862L14 9.99866V5.18051L9.82909 7.58552V7.5862Z" fill="#929292"/>
</svg>
