<svg width="31" height="31" viewBox="0 0 31 31" fill="none" xmlns="http://www.w3.org/2000/svg">
<path d="M15.62 30.23C23.7165 30.23 30.28 23.6665 30.28 15.57C30.28 7.47351 23.7165 0.910004 15.62 0.910004C7.52347 0.910004 0.959961 7.47351 0.959961 15.57C0.959961 23.6665 7.52347 30.23 15.62 30.23Z" fill="#362A5D"/>
<path d="M12.5801 5.88C12.6001 6.23 12.6601 6.6 12.6201 6.95C12.6801 6.8 12.7401 6.66 12.8001 6.51C12.0301 7.18 11.3601 7.69 10.9701 8.68C10.6101 9.58 10.5201 10.65 10.8701 11.57C11.2401 12.53 12.1001 12.9 13.0601 13.06C14.2101 13.25 15.3401 13.47 16.2501 14.26C18.0301 15.81 17.9201 19.55 15.6401 20.6C14.4701 21.14 12.8501 20.82 11.6801 20.38C11.0201 20.13 10.6901 19.62 10.3801 19.01C10.1401 18.54 9.63005 17.72 9.80005 17.16C9.65005 17.31 9.51006 17.45 9.36006 17.6C9.75006 17.47 10.5201 17.36 10.9301 17.41C10.8101 17.31 10.6801 17.22 10.5601 17.12C10.7901 17.6 10.8901 18.06 11.2301 18.49C11.5301 18.88 11.9001 19.2 12.3301 19.43C13.1601 19.87 14.1801 19.94 15.0301 19.51C16.7901 18.61 16.8101 16.1 15.2801 14.96C14.4501 14.34 13.4301 14.22 12.4301 14.07C11.2001 13.88 10.2701 13.44 9.68006 12.28C8.32006 9.61 10.4901 7.5 12.7901 6.5C13.5301 6.18 12.8901 5.1 12.1601 5.42C10.3501 6.21 8.59006 7.55 8.12006 9.58C7.70006 11.38 8.49005 13.56 10.0501 14.59C10.9001 15.15 11.8901 15.23 12.8601 15.39C13.8701 15.56 15.0601 15.9 15.1601 17.11C15.2701 18.41 13.8401 18.86 12.8601 18.3C12.3701 18.02 12.0401 17.57 11.8501 17.05C11.7201 16.7 11.6701 16.35 11.2701 16.22C10.8601 16.08 10.2901 16.24 9.87006 16.28C9.52006 16.32 9.03006 16.29 8.76006 16.57C8.12006 17.21 8.79006 18.57 9.09006 19.21C9.43006 19.94 9.82006 20.71 10.5001 21.18C11.3801 21.79 12.6501 21.98 13.6901 22.09C15.5501 22.29 17.3801 21.47 18.2201 19.74C19.0101 18.11 18.8601 15.59 17.7901 14.11C17.1701 13.26 16.2801 12.67 15.3001 12.31C14.7501 12.11 14.1901 12 13.6101 11.9C13.2101 11.84 12.6801 11.81 12.3501 11.55C11.4601 10.86 12.0001 9.15 12.5401 8.42C12.8601 7.99 13.3701 7.79 13.7001 7.4C14.0401 6.99 13.8701 6.37 13.8401 5.89C13.7801 5.08 12.5301 5.07 12.5801 5.88Z" fill="white"/>
<path d="M12.73 6.55001C12.72 6.52001 12.71 6.49001 12.7 6.46001C12.6 6.70001 12.51 6.93001 12.41 7.17001C12.59 7.09001 12.76 6.99001 12.91 6.84001C13 6.76001 13.07 6.65001 13.13 6.55001C13.17 6.48001 13.19 6.40001 13.24 6.33001C13.21 6.37001 13.17 6.41001 13.14 6.46001C13.16 6.43001 13.18 6.41001 13.21 6.39001C13.17 6.42001 13.13 6.46001 13.08 6.49001C13.11 6.47001 13.14 6.45001 13.18 6.43001C13.13 6.45001 13.08 6.47001 13.03 6.49001C13.11 6.45001 13.2 6.44001 13.29 6.42001C13.34 6.40001 13.39 6.38001 13.44 6.36001C13.51 6.32001 13.57 6.27001 13.62 6.20001C13.7 6.09001 13.76 5.96001 13.75 5.82001C13.74 5.55001 13.57 5.29001 13.29 5.22001C12.9 5.12001 12.48 5.21001 12.14 5.42001C11.87 5.59001 11.65 5.82001 11.41 6.02001C11.29 6.11001 11.23 6.32001 11.23 6.46001C11.23 6.61001 11.3 6.80001 11.41 6.90001C11.53 7.01001 11.69 7.09001 11.85 7.08001C11.91 7.07001 11.96 7.07001 12.02 7.06001C12.13 7.03001 12.22 6.98001 12.3 6.90001C12.46 6.77001 12.61 6.62001 12.78 6.49001C12.74 6.52001 12.7 6.56001 12.65 6.59001C12.74 6.52001 12.84 6.46001 12.95 6.41001C12.9 6.43001 12.85 6.45001 12.8 6.47001C12.87 6.44001 12.95 6.42001 13.02 6.41001C12.96 6.42001 12.91 6.42001 12.85 6.43001C12.91 6.42001 12.98 6.42001 13.04 6.43001C12.98 6.42001 12.93 6.42001 12.87 6.41001C12.9 6.41001 12.93 6.42001 12.95 6.43001C12.95 6.03001 12.95 5.63001 12.95 5.22001C12.71 5.26001 12.48 5.35001 12.3 5.52001C12.21 5.60001 12.14 5.70001 12.09 5.81001C12.05 5.88001 12.02 5.96001 11.98 6.03001C12.01 5.99001 12.05 5.95001 12.08 5.90001C12.04 5.95001 12 5.99001 11.96 6.02001C12 5.99001 12.04 5.95001 12.09 5.92001C12 5.99001 11.89 6.04001 11.78 6.09001C11.74 6.12001 11.7 6.16001 11.65 6.19001C11.59 6.25001 11.55 6.31001 11.52 6.39001C11.47 6.51001 11.44 6.67001 11.49 6.80001C11.5 6.83001 11.51 6.86001 11.52 6.89001C11.54 6.97001 11.58 7.04001 11.63 7.10001C11.67 7.17001 11.73 7.22001 11.81 7.26001C11.94 7.34001 12.14 7.37001 12.29 7.32001C12.44 7.27001 12.59 7.18001 12.66 7.03001C12.74 6.89001 12.79 6.70001 12.73 6.55001Z" fill="white"/>
<path d="M12.6 7.35C12.6 7.28 12.6 7.2 12.6 7.13C12.61 6.56 11.92 6.34 11.53 6.69C10.6 7.51 9.59999 8.48 9.37999 9.75C9.26999 10.36 9.25999 11 9.32999 11.62C9.40999 12.31 9.71 12.86 10.11 13.41C10.4 13.12 10.68 12.84 10.97 12.55C10.48 12.31 10.36 11.54 10.27 11.05C10.15 10.42 10.13 9.74 10.48 9.18C10.09 9.07 9.69999 8.97 9.31999 8.86C9.22999 10.29 9.54 11.69 10.2 12.95C10.47 13.48 11.43 13.26 11.36 12.63C11.26 11.66 11.03 10.61 11.18 9.64C10.77 9.58 10.36 9.53 9.95 9.47C9.94 10.11 9.93 10.75 9.93 11.39C9.93 11.95 9.95 12.52 10.18 13.04C10.64 14.08 11.92 14.57 12.94 14.85C13.62 15.04 14.04 14.06 13.42 13.71C12.71 13.31 11.97 12.9 11.53 12.19C11.24 12.48 10.96 12.76 10.67 13.05C11.38 13.37 11.99 13.85 12.71 14.15C13.42 14.45 14.15 14.62 14.92 14.7C14.92 14.28 14.92 13.87 14.92 13.45C14.35 13.39 13.84 13.18 13.36 12.86C13.36 13.22 13.36 13.58 13.36 13.94C13.17 13.97 13.18 14.01 13.4 14.05C13.46 14.07 13.51 14.09 13.57 14.12C13.74 14.19 13.91 14.25 14.09 14.32C14.45 14.46 14.82 14.59 15.18 14.74C15.73 14.96 16.42 15.3 16.41 15.98C16.72 15.8 17.04 15.62 17.35 15.44C16.9 15.1 16.49 14.72 16.1 14.31C15.75 13.93 15.45 13.5 14.87 13.67C14.5 13.77 14.27 14.25 14.5 14.59C15 15.32 15.91 16.03 15.92 16.98C16.18 16.78 16.45 16.58 16.71 16.38C16.65 16.37 16.59 16.35 16.54 16.34C15.76 16.17 15.42 17.37 16.21 17.55C16.27 17.56 16.33 17.58 16.38 17.59C16.77 17.68 17.18 17.41 17.17 16.99C17.16 15.72 16.24 14.94 15.58 13.97C15.46 14.28 15.33 14.58 15.21 14.89C15.24 14.88 15.27 14.87 15.31 14.86C15.15 14.84 14.99 14.82 14.83 14.8C14.99 14.87 15.11 15.08 15.23 15.21C15.38 15.37 15.54 15.53 15.7 15.69C16.02 16 16.37 16.27 16.73 16.54C17.13 16.84 17.66 16.43 17.67 16C17.69 14.89 16.85 14.13 15.9 13.71C15.39 13.49 14.87 13.3 14.35 13.1C13.83 12.9 13.28 12.57 12.74 12.88C12.32 13.13 12.36 13.7 12.74 13.96C13.41 14.41 14.13 14.64 14.93 14.72C15.73 14.8 15.72 13.55 14.93 13.47C14.28 13.4 13.64 13.23 13.05 12.96C12.45 12.68 11.92 12.27 11.31 11.99C10.78 11.75 10.1 12.27 10.45 12.85C11.01 13.75 11.88 14.31 12.79 14.82C12.95 14.44 13.11 14.06 13.27 13.68C12.53 13.48 11.41 13.15 11.23 12.3C11.04 11.42 11.19 10.4 11.2 9.51C11.21 8.83 10.08 8.63 9.96999 9.34C9.79999 10.45 9.98 11.56 10.1 12.66C10.49 12.55 10.88 12.45 11.26 12.34C10.7 11.26 10.47 10.09 10.55 8.88C10.59 8.23 9.69999 8.07 9.38999 8.56C8.85999 9.41 8.87999 10.44 9.04999 11.39C9.19999 12.21 9.50999 13.24 10.33 13.63C10.83 13.87 11.59 13.33 11.19 12.77C10.89 12.36 10.62 11.96 10.56 11.45C10.51 10.95 10.51 10.4 10.62 9.91C10.83 8.94 11.7 8.19 12.42 7.56C12.06 7.41 11.71 7.27 11.35 7.12C11.35 7.19 11.35 7.27 11.35 7.34C11.34 8.15 12.59 8.15 12.6 7.35Z" fill="white"/>
<path d="M16.4301 18.48C16.4201 18.48 16.4101 18.47 16.4001 18.47C16.5501 18.62 16.6901 18.76 16.8401 18.91C16.8401 18.89 16.8301 18.87 16.8301 18.85C16.8301 18.96 16.8301 19.07 16.8301 19.18C16.9501 18.61 17.0801 18.04 17.2001 17.47C16.8001 17.36 16.4001 17.25 15.9901 17.14C15.9001 17.64 15.8201 18.14 15.7501 18.64C15.7101 18.95 15.8001 19.25 16.1101 19.38C16.3701 19.49 16.7601 19.41 16.8901 19.12C17.2001 18.42 17.4401 17.71 17.5801 16.96C17.6601 16.55 17.2901 16 16.8101 16.19C16.4601 16.33 16.1801 16.67 16.3301 17.07C16.5201 17.58 17.1601 17.68 17.4701 17.22C17.5601 17.09 17.6201 16.95 17.6601 16.8C17.2501 16.74 16.8401 16.69 16.4301 16.63C16.4601 17.5 16.5201 18.5 15.9301 19.22C15.3801 19.89 14.6201 20.06 13.7901 19.98C13.3101 19.93 12.8301 19.88 12.3601 19.79C12.0001 19.73 11.6701 19.65 11.4701 19.33C11.2801 19.04 11.2101 18.68 11.0901 18.36C10.9401 17.96 10.7701 17.61 10.4801 17.29C10.4401 17.62 10.4001 17.94 10.3501 18.27C10.3801 18.26 10.4101 18.24 10.4401 18.23C10.3301 18.26 10.2301 18.29 10.1201 18.32C10.1501 18.32 10.1801 18.32 10.2201 18.32C10.1101 18.29 10.0101 18.26 9.90006 18.23C10.0001 18.27 10.0601 18.43 10.1301 18.53C10.2401 18.69 10.3601 18.86 10.4901 19.01C10.7401 19.3 11.0601 19.52 11.3801 19.72C12.0501 20.12 12.7601 20.47 13.5501 20.49C14.3001 20.51 15.0701 20.27 15.7501 19.97C16.3301 19.72 17.2001 19.23 17.3501 18.56C17.4401 18.17 17.1701 17.77 16.7501 17.77C16.5801 17.77 16.4401 17.8 16.3001 17.9C15.6201 18.33 16.2501 19.41 16.9301 18.98C16.9501 18.97 16.9701 18.95 16.9901 18.94C16.8801 18.97 16.7801 19 16.6701 19.03C16.6901 19.03 16.7201 19.03 16.7401 19.03C16.5401 18.77 16.3401 18.5 16.1401 18.24C16.1601 18.16 16.1901 18.19 16.1101 18.27C16.0601 18.32 16.0001 18.38 15.9501 18.42C15.8501 18.51 15.7401 18.58 15.6201 18.65C15.3601 18.81 15.0801 18.93 14.7901 19.02C14.1501 19.23 13.5201 19.35 12.8801 19.1C12.3601 18.9 11.7401 18.57 11.3701 18.14C11.1601 17.89 11.0301 17.57 10.7901 17.34C10.4801 17.04 10.0901 17.04 9.72006 17.21C9.33006 17.39 9.35006 17.92 9.59006 18.19C9.85006 18.48 9.93006 18.89 10.0601 19.25C10.2201 19.69 10.4101 20.13 10.7601 20.46C11.1801 20.84 11.7201 20.98 12.2601 21.06C12.8901 21.16 13.5501 21.27 14.1901 21.28C15.2501 21.31 16.2701 20.82 16.9301 19.98C17.6801 19.02 17.7301 17.82 17.6801 16.65C17.6501 15.95 16.6501 15.79 16.4501 16.48C16.4501 16.53 16.4201 16.57 16.3901 16.61C16.7701 16.66 17.1501 16.71 17.5301 16.76C17.5201 16.75 17.5201 16.73 17.5101 16.72C17.4901 16.88 17.4701 17.04 17.4501 17.2C17.4601 17.19 17.4601 17.17 17.4701 17.16C17.3501 17.26 17.2201 17.35 17.1001 17.45C17.1101 17.44 17.1301 17.44 17.1401 17.43C16.8801 17.17 16.6301 16.92 16.3701 16.66C16.2501 17.3 16.0701 17.93 15.8001 18.52C16.1801 18.68 16.5601 18.84 16.9401 19C17.0101 18.5 17.0901 18 17.1801 17.5C17.2401 17.17 17.0901 16.83 16.7401 16.73C16.4301 16.64 16.0401 16.84 15.9701 17.17C15.8901 17.52 15.8201 17.87 15.7401 18.22C15.6701 18.57 15.5501 18.91 15.6101 19.27C15.6501 19.48 15.8501 19.65 16.0501 19.71C16.0601 19.71 16.0701 19.72 16.0801 19.72C16.8701 19.92 17.2001 18.71 16.4301 18.48Z" fill="white"/>
<path d="M10.9301 6.57999C10.8601 6.59999 10.8701 6.59999 10.9601 6.57999C10.8901 6.57999 10.9001 6.57999 10.9801 6.58999C10.9501 6.57999 10.9201 6.57999 10.8901 6.56999C10.9701 6.60999 10.9901 6.60999 10.9301 6.57999C11.0101 6.65999 11.0901 6.72999 11.1601 6.80999C11.1701 6.83999 11.1801 6.85999 11.1901 6.88999C11.1901 6.99999 11.1901 7.10999 11.1901 7.21999C11.1501 7.28999 11.1401 7.29999 11.1801 7.23999C11.2001 7.20999 11.2101 7.18999 11.2301 7.15999C11.1801 7.21999 11.1701 7.22999 11.2201 7.17999C11.2401 7.15999 11.2601 7.12999 11.2801 7.10999C11.3201 7.06999 11.3701 7.02999 11.4201 6.98999C11.5301 6.89999 11.3401 7.04999 11.4401 6.96999C11.6501 6.82999 11.8601 6.67999 12.0801 6.55999C12.1801 6.49999 12.3001 6.42999 12.4101 6.38999C12.2601 6.42999 12.4601 6.36999 12.4901 6.35999C12.5401 6.33999 12.6001 6.31999 12.6501 6.30999C12.7501 6.27999 12.9001 6.21999 13.0101 6.22999C12.9201 6.23999 12.9201 6.23999 12.9901 6.22999C13.0201 6.22999 13.0501 6.21999 13.0901 6.21999C13.1201 6.21999 13.1601 6.21999 13.1901 6.21999C13.3501 6.22999 13.2601 6.17999 12.9301 6.08999C12.8801 5.99999 12.8201 5.90999 12.7701 5.80999C12.8101 5.91999 12.7801 5.67999 12.7701 5.81999C12.7701 5.87999 12.7701 5.92999 12.7701 5.98999C12.7701 6.10999 12.7701 6.22999 12.7801 6.35999C12.7801 6.46999 12.7801 6.58999 12.7901 6.69999C12.7901 6.75999 12.7901 6.80999 12.7901 6.86999C12.7901 6.89999 12.7901 6.92999 12.7901 6.94999C12.7901 7.02999 12.7901 7.02999 12.8001 6.92999C12.8501 6.83999 12.9101 6.74999 12.9601 6.64999C13.0501 6.58999 13.0701 6.57999 13.0101 6.60999C12.9801 6.61999 12.9601 6.62999 12.9301 6.64999C12.8901 6.66999 12.8501 6.68999 12.8201 6.69999C12.7301 6.73999 12.6401 6.78999 12.5501 6.82999C12.3701 6.91999 12.1901 7.01999 12.0101 7.12999C11.6201 7.37999 11.2601 7.70999 11.0401 8.11999C10.8901 8.40999 10.9601 8.80999 11.2601 8.97999C11.5501 9.12999 11.9501 9.05999 12.1201 8.75999C12.1501 8.70999 12.1801 8.64999 12.2101 8.59999C12.2801 8.49999 12.1901 8.58999 12.2001 8.60999L12.2501 8.54999C12.2901 8.50999 12.3201 8.46999 12.3601 8.42999C12.3801 8.40999 12.4901 8.28999 12.5101 8.29999C12.4801 8.28999 12.4001 8.37999 12.5001 8.30999C12.5301 8.28999 12.5601 8.26999 12.5901 8.24999C12.6401 8.21999 12.6801 8.18999 12.7301 8.15999C12.8401 8.08999 12.9601 8.02999 13.0801 7.96999C13.3201 7.84999 13.6301 7.74999 13.8201 7.55999C14.1301 7.24999 14.0201 6.70999 14.0201 6.30999C14.0101 5.87999 14.0901 5.29999 13.6201 5.06999C13.2701 4.89999 12.8001 4.98999 12.4401 5.07999C11.8301 5.23999 11.2701 5.55999 10.7701 5.92999C10.4401 6.16999 10.0801 6.47999 9.98012 6.89999C9.80012 7.64999 10.6701 7.94999 11.2501 7.79999C11.5701 7.71999 11.7901 7.34999 11.6901 7.02999C11.5901 6.68999 11.2701 6.48999 10.9301 6.57999Z" fill="white"/>
<path d="M10.9001 5.85999C10.2101 6.15999 9.70006 6.77999 9.25006 7.35999C8.76006 7.99999 8.45006 8.82 8.69006 9.63C8.78006 9.94 9.13006 10.17 9.46006 10.07C9.78006 9.96999 9.99006 9.64 9.90006 9.3C9.89006 9.27 9.88006 9.22999 9.87006 9.19999C9.84006 9.08999 9.87006 9.26 9.86006 9.18C9.86006 9.11 9.85006 9.04 9.86006 8.97C9.86006 8.95 9.86006 8.93 9.86006 8.92C9.86006 8.87 9.86006 8.88 9.85006 8.96C9.84006 8.93 9.87006 8.87999 9.87006 8.85999C9.89006 8.78999 9.91006 8.71999 9.93006 8.65999C9.96006 8.54999 9.90006 8.7 9.94006 8.64C9.96006 8.61 9.97006 8.57999 9.99006 8.53999C10.0201 8.47999 10.0601 8.41999 10.0901 8.35999C10.1301 8.28999 10.1701 8.22999 10.2201 8.15999C10.2401 8.12999 10.2601 8.09999 10.2801 8.06999C10.3501 7.97999 10.2501 8.11 10.3001 8.05C10.4901 7.83 10.6801 7.6 10.8901 7.39C10.9401 7.34 10.9901 7.29999 11.0401 7.24999C11.0701 7.21999 11.1001 7.19999 11.1401 7.16999C11.1001 7.19999 11.0801 7.21 11.1401 7.18C11.2701 7.09 11.4001 7.01999 11.5401 6.95999C11.8401 6.82999 11.9301 6.37 11.7601 6.1C11.5501 5.77 11.2201 5.70999 10.9001 5.85999Z" fill="white"/>
<path d="M13.41 8.08C13.37 8.65 13.37 9.21 13.4 9.78C13.42 10.11 13.67 10.41 14.02 10.4C17.62 10.32 20.48 13.27 20.64 16.81C20.81 20.37 18.26 24.14 14.38 23.75C13.58 23.67 13.59 24.92 14.38 25C18.91 25.46 22.09 21 21.89 16.81C21.69 12.61 18.32 9.06 14.02 9.15C14.23 9.36 14.44 9.57 14.64 9.77C14.61 9.2 14.61 8.64 14.65 8.07C14.72 7.28 13.47 7.28 13.41 8.08Z" fill="white"/>
<path d="M13.74 24.31C13.82 25.42 13.5601 27.02 15.0801 26.89C16.3801 26.78 17.67 26.36 18.81 25.75C21.28 24.42 22.95 22.03 23.41 19.27C23.88 16.38 23.12 13.11 21.41 10.73C20.63 9.65 19.6 8.84 18.38 8.31C17.77 8.05 17.13 7.85 16.48 7.72C16.15 7.66 14.73 7.65 14.62 7.53C14.07 6.94 13.19 7.83 13.74 8.41C14.08 8.78 14.41 8.74 14.89 8.77C15.46 8.81 16.02 8.89 16.57 9.02C17.7 9.29 18.79 9.78 19.65 10.58C21.41 12.22 22.2801 15.08 22.3101 17.43C22.3401 19.8 21.46 22.11 19.65 23.67C18.83 24.38 17.84 24.92 16.81 25.26C16.24 25.45 15.6701 25.53 15.0801 25.64C14.9901 25.65 14.9 25.66 14.8 25.66C15.12 25.81 15.2 25.71 15.06 25.36C15.13 25.07 15 24.6 14.98 24.31C14.93 23.52 13.68 23.51 13.74 24.31Z" fill="white"/>
<path d="M16.2701 8.77001C15.7001 8.53001 15.1801 8.38001 14.5601 8.30001C13.8601 8.21001 13.7101 9.38 14.3901 9.53C14.9901 9.66 15.6001 9.76001 16.2101 9.85001C16.9901 9.96001 17.3401 8.78001 16.5401 8.64001C16.2601 8.59001 15.9901 8.55 15.7101 8.5C15.6501 8.91 15.6001 9.32 15.5401 9.73C17.2301 9.93 18.6601 10.97 19.8501 12.12C20.4901 12.73 21.0501 13.3 21.2401 14.19C21.4401 15.14 21.5201 16.12 21.6201 17.09C22.0301 17.03 22.4401 16.98 22.8501 16.92C22.5201 15.58 22.1001 14.28 21.6001 13C21.2001 13.11 20.8001 13.22 20.3901 13.33C20.8301 14.44 21.2901 15.57 21.4701 16.76C21.6801 18.15 21.3501 19.44 20.7801 20.7C19.8301 22.79 17.6001 24.53 15.2301 24.59C15.2301 25.01 15.2301 25.42 15.2301 25.84C15.7301 25.79 16.1501 25.68 16.5901 25.45C17.3101 25.09 16.6801 24.01 15.9601 24.37C15.7301 24.5 15.4901 24.57 15.2301 24.59C14.4401 24.66 14.4101 25.86 15.2301 25.84C17.8801 25.77 20.6001 23.95 21.7401 21.58C22.3601 20.29 22.8401 18.92 22.7801 17.47C22.7201 15.91 22.1501 14.43 21.5801 12.99C21.2901 12.25 20.0801 12.57 20.3701 13.32C20.8701 14.6 21.2901 15.91 21.6201 17.24C21.7901 17.91 22.9201 17.79 22.8501 17.07C22.7301 15.96 22.6601 14.8 22.4001 13.72C22.1401 12.68 21.4701 11.95 20.7201 11.22C19.2601 9.82 17.5701 8.71001 15.5201 8.47001C14.8301 8.39001 14.6601 9.58 15.3501 9.7C15.6301 9.75 15.9001 9.79001 16.1801 9.84001C16.2901 9.44001 16.4001 9.04001 16.5101 8.63001C15.9001 8.55001 15.2901 8.44001 14.6901 8.31001C14.6301 8.72001 14.5801 9.13 14.5201 9.54C14.8901 9.59 15.2501 9.69001 15.5901 9.84001C16.3701 10.16 17.0001 9.09001 16.2701 8.77001Z" fill="white"/>
<path d="M13.9801 7.78001C13.9801 7.79001 13.9801 7.79001 13.9801 7.78001C14.2101 7.69001 14.4501 7.60001 14.6801 7.50001C14.6701 7.50001 14.6701 7.50001 14.6601 7.50001C14.7801 7.60001 14.9101 7.69001 15.0301 7.79001C15.0301 7.79001 15.0301 7.78001 15.0201 7.78001C14.9901 8.03001 14.9501 8.28001 14.9201 8.54001C14.9301 8.53001 14.9301 8.53001 14.9401 8.52001C14.7901 8.58001 14.6501 8.64001 14.5001 8.70001C14.6501 8.69001 14.8201 8.72001 14.9701 8.74001C14.9701 8.32001 14.9701 7.91001 14.9701 7.49001C14.8801 7.49001 14.7901 7.48001 14.7101 7.47001C14.8101 7.48001 14.5701 7.44001 14.5501 7.44001C14.4901 7.85001 14.4401 8.26001 14.3801 8.67001C14.5401 8.67001 14.6901 8.68001 14.8501 8.68001C15.1801 8.69001 15.4901 8.39001 15.4701 8.06001C15.4501 7.69001 15.1901 7.47001 14.8501 7.44001C14.6701 7.42001 14.4801 7.40001 14.3001 7.38001C14.3001 7.80001 14.3001 8.21001 14.3001 8.63001C14.6101 8.60001 14.9101 8.60001 15.2201 8.62001C15.2801 8.62001 15.3401 8.63001 15.4001 8.64001C15.4401 8.64001 15.4801 8.65001 15.5201 8.65001C15.4601 8.64001 15.4601 8.64001 15.5401 8.65001C15.6801 8.67001 15.8201 8.70001 15.9601 8.73001C16.2401 8.79001 16.5101 8.88001 16.7801 8.98001C16.8501 9.01001 16.8601 9.01001 16.8001 8.99001C16.8401 9.01001 16.8701 9.02001 16.9101 9.04001C16.9701 9.07001 17.0201 9.09001 17.0801 9.12001C17.2301 9.19001 17.3701 9.27001 17.5101 9.36001C17.7901 9.53001 18.2101 9.43001 18.3701 9.14001C18.5301 8.84001 18.4501 8.46001 18.1501 8.28001C17.0101 7.59001 15.6501 7.26001 14.3201 7.38001C14.0001 7.41001 13.6801 7.65001 13.7001 8.00001C13.7201 8.37001 13.9801 8.59001 14.3201 8.62001C14.5001 8.64001 14.6901 8.66001 14.8701 8.68001C14.8701 8.26001 14.8701 7.85001 14.8701 7.43001C14.7101 7.43001 14.5601 7.42001 14.4001 7.42001C14.0901 7.41001 13.8301 7.66001 13.7901 7.96001C13.7501 8.25001 13.9301 8.58001 14.2401 8.65001C14.4901 8.70001 14.7401 8.73001 15.0001 8.75001C15.3301 8.77001 15.6401 8.45001 15.6201 8.13001C15.6001 7.76001 15.3401 7.55001 15.0001 7.51001C14.6501 7.47001 14.3501 7.43001 14.0701 7.67001C13.8401 7.86001 13.8701 8.19001 13.9701 8.43001C14.0301 8.57001 14.2101 8.70001 14.3601 8.73001C14.6101 8.78001 14.9501 8.70001 15.0701 8.44001V8.43001C15.2101 8.13001 15.1601 7.74001 14.8501 7.57001C14.5601 7.41001 14.1201 7.47001 13.9801 7.78001Z" fill="white"/>
<path d="M16.5299 8.93999C17.3899 9.01999 18.3499 9.38999 19.0499 9.90999C19.7199 10.41 20.2099 11.16 20.6799 11.86C20.8699 12.14 21.2299 12.26 21.5399 12.08C21.8199 11.92 21.9499 11.51 21.7599 11.22C21.1699 10.33 20.5599 9.45999 19.6899 8.82999C19.2499 8.50999 18.7499 8.29999 18.2399 8.09999C17.6899 7.88999 17.1199 7.74999 16.5299 7.68999C16.1899 7.65999 15.9099 7.99999 15.9099 8.30999C15.8999 8.67999 16.1899 8.89999 16.5299 8.93999Z" fill="white"/>
<path d="M14.88 7.59C14.73 7.5 14.57 7.43 14.39 7.39C14.33 7.8 14.28 8.21 14.22 8.62C14.34 8.61 14.45 8.59 14.57 8.58C14.88 8.54 15.14 8.37 15.18 8.04C15.21 7.75 15.04 7.41 14.73 7.35C14.47 7.3 14.21 7.27 13.95 7.26C13.95 7.68 13.95 8.09 13.95 8.51C14.98 8.48 15.97 8.52 16.97 8.81C17.42 8.94 17.86 9.11 18.28 9.32C18.65 9.51 19.02 9.72 19.25 10.07C19.68 10.75 20.76 10.12 20.33 9.44C19.72 8.48 18.55 7.99 17.51 7.66C16.35 7.29 15.16 7.22 13.96 7.25C13.16 7.27 13.15 8.48 13.96 8.5C14.11 8.5 14.26 8.51 14.41 8.54C14.47 8.13 14.52 7.72 14.58 7.31C14.46 7.32 14.35 7.34 14.23 7.35C13.92 7.39 13.66 7.56 13.62 7.89C13.59 8.18 13.76 8.51 14.07 8.58C14.18 8.6 14.16 8.59 14.26 8.65C14.93 9.09 15.56 8.01 14.88 7.59Z" fill="white"/>
</svg>
